<svg width="24" height="24" viewBox="0 0 24 24" fill="none" xmlns="http://www.w3.org/2000/svg">
<g clip-path="url(#clip0_761_213)">
<path d="M12.0001 0.75C9.88135 0.751693 7.80618 1.35165 6.01343 2.4808H17.9703C16.1823 1.35461 14.1132 0.754774 12.0001 0.75Z" fill="#B22234"/>
<path d="M6.01343 2.4808C5.24115 2.9697 4.53132 3.55089 3.89966 4.21152H20.1137C19.4729 3.54898 18.753 2.96772 17.9703 2.4808H6.01343Z" fill="#FCFCFC"/>
<path d="M3.89957 4.21152C3.38896 4.74237 2.93171 5.32209 2.53442 5.94232H21.4784C21.0812 5.3221 20.6241 4.74239 20.1136 4.21152H3.89957Z" fill="#B22234"/>
<path d="M2.53448 5.94232C2.1794 6.4915 1.87288 7.0706 1.61841 7.67303H22.3734C22.1257 7.07133 21.8263 6.49226 21.4785 5.94232H2.53448Z" fill="#FCFCFC"/>
<path d="M1.61838 7.67303C1.38803 8.23415 1.20344 8.81297 1.06641 9.40384H22.9328C22.7933 8.81275 22.6063 8.23392 22.3734 7.67303H1.61838Z" fill="#B22234"/>
<path d="M1.06644 9.40384C0.930543 9.9728 0.839233 10.5515 0.793335 11.1346H23.2134C23.165 10.5513 23.0712 9.9726 22.9328 9.40384H1.06644Z" fill="#FCFCFC"/>
<path d="M0.793304 11.1346C0.767763 11.4224 0.753317 11.7111 0.75 12C0.751095 12.2888 0.763311 12.5775 0.786621 12.8654H23.2067C23.2322 12.5776 23.2467 12.2889 23.25 12C23.2489 11.7112 23.2367 11.4225 23.2134 11.1346H0.793304Z" fill="#B22234"/>
<path d="M0.786621 12.8654C0.834987 13.4487 0.928808 14.0274 1.06723 14.5962H22.9336C23.0695 14.0272 23.1608 13.4485 23.2067 12.8654H0.786621Z" fill="#FCFCFC"/>
<path d="M1.06726 14.5962C1.2067 15.1872 1.39377 15.7661 1.62665 16.327H22.3817C22.612 15.7659 22.7966 15.187 22.9336 14.5962H1.06726Z" fill="#B22234"/>
<path d="M1.62659 16.327C1.87428 16.9287 2.17372 17.5077 2.52151 18.0577H21.4655C21.8206 17.5085 22.1271 16.9294 22.3816 16.327H1.62659Z" fill="#FCFCFC"/>
<path d="M2.52148 18.0577C2.91866 18.6779 3.37578 19.2576 3.88626 19.7885H20.1003C20.611 19.2576 21.0682 18.6779 21.4655 18.0577H2.52148Z" fill="#B22234"/>
<path d="M3.88635 19.7885C4.52723 20.451 5.2471 21.0323 6.02979 21.5192H17.9867C18.7589 21.0303 19.4688 20.4491 20.1004 19.7885H3.88635Z" fill="#FCFCFC"/>
<path d="M6.02979 21.5192C7.81782 22.6454 9.88689 23.2452 12 23.25C14.1187 23.2483 16.1939 22.6484 17.9867 21.5192H6.02979Z" fill="#B22234"/>
<path d="M12 0.75C9.01631 0.75 6.15483 1.93526 4.04505 4.04505C1.93526 6.15483 0.75 9.01631 0.75 12C0.751472 12.2973 0.764727 12.5944 0.789734 12.8906H12.8906V0.794586C12.5945 0.767959 12.2973 0.753086 12 0.75Z" fill="#3C3B6E"/>
<path d="M7.97359 1.50856C7.82369 1.56328 7.67498 1.62118 7.52754 1.68223L7.69188 1.80711L7.58074 2.16627L7.87517 1.94645L8.17821 2.1768L8.06441 1.8051L8.36745 1.57887H7.9951L7.97359 1.50856ZM9.88188 1.20126L9.76499 1.57884H9.39394L9.6943 1.80713L9.58313 2.16625L9.87754 1.94644L10.1806 2.17678L10.0668 1.80514L10.3698 1.57884H9.99751L9.88188 1.20126ZM11.8843 1.20126L11.7674 1.57884H11.3963L11.6967 1.80713L11.5855 2.16625L11.8799 1.94644L12.183 2.17678L12.0692 1.80514L12.3722 1.57884H11.9999L11.8843 1.20126ZM5.07906 3.14735C5.02616 3.1868 4.9736 3.22672 4.9214 3.2671L5.17464 3.45964L5.07906 3.14735ZM6.8783 2.48409L6.76141 2.86167H6.39036L6.69072 3.08996L6.57955 3.44908L6.87396 3.22927L7.17703 3.45961L7.06322 3.08797L7.36625 2.86167H6.99393L6.8783 2.48409ZM8.88069 2.48409L8.7638 2.86167H8.39275L8.6931 3.08996L8.58193 3.44908L8.87635 3.22927L9.17941 3.45961L9.06561 3.08797L9.36864 2.86167H8.99632L8.88069 2.48409ZM10.8831 2.48409L10.7662 2.86167H10.3951L10.6955 3.08996L10.5843 3.44908L10.8787 3.22927L11.1818 3.45961L11.068 3.08797L11.371 2.86167H10.9987L10.8831 2.48409ZM3.98107 4.11424C3.8701 4.2317 3.76168 4.35154 3.65587 4.47368L3.57595 4.73185L3.87038 4.51204L4.17342 4.74238L4.05962 4.37077L4.36266 4.14445H3.99031L3.98107 4.11424ZM5.87711 3.76687L5.76022 4.14445H5.38917L5.68952 4.37274L5.57835 4.73186L5.87277 4.51205L6.17584 4.74239L6.06203 4.37075L6.36506 4.14445H5.99274L5.87711 3.76687ZM7.8795 3.76687L7.76261 4.14445H7.39156L7.69191 4.37274L7.58074 4.73186L7.87515 4.51205L8.17822 4.74239L8.06441 4.37075L8.36744 4.14445H7.99513L7.8795 3.76687ZM9.88188 3.76687L9.76499 4.14445H9.39394L9.6943 4.37274L9.58313 4.73186L9.87754 4.51205L10.1806 4.74239L10.0668 4.37075L10.3698 4.14445H9.99751L9.88188 3.76687ZM11.8843 3.76687L11.7674 4.14445H11.3963L11.6967 4.37274L11.5855 4.73186L11.8799 4.51205L12.183 4.74239L12.0692 4.37075L12.3722 4.14445H11.9999L11.8843 3.76687ZM2.95851 5.32713C2.85486 5.46527 2.7544 5.60578 2.65721 5.74855L2.57482 6.01469L2.86916 5.79487L3.17229 6.02522L3.05849 5.65361L3.36144 5.42729H2.98918L2.95851 5.32713ZM4.87592 5.0497L4.75903 5.42728H4.38798L4.68833 5.65557L4.57716 6.01469L4.87157 5.79488L5.17464 6.02522L5.06083 5.65358L5.36387 5.42728H4.99155L4.87592 5.0497ZM6.8783 5.0497L6.76141 5.42728H6.39036L6.69072 5.65557L6.57955 6.01469L6.87396 5.79488L7.17703 6.02522L7.06322 5.65358L7.36625 5.42728H6.99393L6.8783 5.0497ZM8.88069 5.0497L8.7638 5.42728H8.39275L8.6931 5.65557L8.58193 6.01469L8.87635 5.79488L9.17941 6.02522L9.06561 5.65358L9.36864 5.42728H8.99632L8.88069 5.0497ZM10.8831 5.0497L10.7662 5.42728H10.3951L10.6955 5.65557L10.5843 6.01469L10.8787 5.79488L11.1818 6.02522L11.068 5.65358L11.371 5.42728H10.9987L10.8831 5.0497ZM2.08107 6.71013C2.01384 6.83614 1.949 6.96342 1.88661 7.0919L2.17107 7.30806L2.05727 6.93644L2.36031 6.71013H2.08107ZM3.87473 6.33253L3.75784 6.7101H3.38678L3.68714 6.9384L3.57597 7.29751L3.87039 7.07771L4.17345 7.30805L4.05965 6.93641L4.36267 6.7101H3.99035L3.87473 6.33253ZM5.87711 6.33253L5.76022 6.7101H5.38917L5.68952 6.9384L5.57835 7.29751L5.87277 7.07771L6.17584 7.30805L6.06203 6.93641L6.36506 6.7101H5.99274L5.87711 6.33253ZM7.8795 6.33253L7.76261 6.7101H7.39156L7.69191 6.9384L7.58074 7.29751L7.87515 7.07771L8.17822 7.30805L8.06441 6.93641L8.36744 6.7101H7.99513L7.8795 6.33253ZM9.88188 6.33253L9.76499 6.7101H9.39394L9.6943 6.9384L9.58313 7.29751L9.87754 7.07771L10.1806 7.30805L10.0668 6.93641L10.3698 6.7101H9.99751L9.88188 6.33253ZM11.8843 6.33253L11.7674 6.7101H11.3963L11.6967 6.9384L11.5855 7.29751L11.8799 7.07771L12.183 7.30805L12.0692 6.93641L12.3722 6.7101H11.9999L11.8843 6.33253ZM2.87354 7.61531L2.75665 7.99288H2.38559L2.68595 8.22118L2.57478 8.58029L2.86919 8.36049L3.17226 8.59083L3.05845 8.21918L3.36148 7.99288H2.98916L2.87354 7.61531ZM4.87592 7.61531L4.75903 7.99288H4.38798L4.68833 8.22118L4.57716 8.58029L4.87157 8.36049L5.17464 8.59083L5.06083 8.21918L5.36387 7.99288H4.99155L4.87592 7.61531ZM6.8783 7.61531L6.76141 7.99288H6.39036L6.69072 8.22118L6.57955 8.58029L6.87396 8.36049L7.17703 8.59083L7.06322 8.21918L7.36625 7.99288H6.99393L6.8783 7.61531ZM8.88069 7.61531L8.7638 7.99288H8.39275L8.6931 8.22118L8.58193 8.58029L8.87635 8.36049L9.17941 8.59083L9.06561 8.21918L9.36864 7.99288H8.99632L8.88069 7.61531ZM10.8831 7.61531L10.7662 7.99288H10.3951L10.6955 8.22118L10.5843 8.58029L10.8787 8.36049L11.1818 8.59083L11.068 8.21918L11.371 7.99288H10.9987L10.8831 7.61531ZM1.87234 8.89814L1.75546 9.27571H1.3844L1.68476 9.50401L1.57359 9.86312L1.868 9.64332L2.17107 9.87366L2.05726 9.50201L2.36029 9.27571H1.98797L1.87234 8.89814ZM3.87473 8.89814L3.75784 9.27571H3.38678L3.68714 9.50401L3.57597 9.86312L3.87039 9.64332L4.17345 9.87366L4.05965 9.50201L4.36267 9.27571H3.99035L3.87473 8.89814ZM5.87711 8.89814L5.76022 9.27571H5.38917L5.68952 9.50401L5.57835 9.86312L5.87277 9.64332L6.17584 9.87366L6.06203 9.50201L6.36506 9.27571H5.99274L5.87711 8.89814ZM7.8795 8.89814L7.76261 9.27571H7.39156L7.69191 9.50401L7.58074 9.86312L7.87515 9.64332L8.17822 9.87366L8.06441 9.50201L8.36744 9.27571H7.99513L7.8795 8.89814ZM9.88188 8.89814L9.76499 9.27571H9.39394L9.6943 9.50401L9.58313 9.86312L9.87754 9.64332L10.1806 9.87366L10.0668 9.50201L10.3698 9.27571H9.99751L9.88188 8.89814ZM11.8843 8.89814L11.7674 9.27571H11.3963L11.6967 9.50401L11.5855 9.86312L11.8799 9.64332L12.183 9.87366L12.0692 9.50201L12.3722 9.27571H11.9999L11.8843 8.89814ZM2.87354 10.181L2.75665 10.5585H2.38559L2.68595 10.7868L2.57478 11.146L2.86919 10.9261L3.17226 11.1565L3.05845 10.7848L3.36148 10.5585H2.98916L2.87354 10.181ZM4.87592 10.181L4.75903 10.5585H4.38798L4.68833 10.7868L4.57716 11.146L4.87157 10.9261L5.17464 11.1565L5.06083 10.7848L5.36387 10.5585H4.99155L4.87592 10.181ZM6.8783 10.181L6.76141 10.5585H6.39036L6.69072 10.7868L6.57955 11.146L6.87396 10.9261L7.17703 11.1565L7.06322 10.7848L7.36625 10.5585H6.99393L6.8783 10.181ZM8.88069 10.181L8.7638 10.5585H8.39275L8.6931 10.7868L8.58193 11.146L8.87635 10.9261L9.17941 11.1565L9.06561 10.7848L9.36864 10.5585H8.99632L8.88069 10.181ZM10.8831 10.181L10.7662 10.5585H10.3951L10.6955 10.7868L10.5843 11.146L10.8787 10.9261L11.1818 11.1565L11.068 10.7848L11.371 10.5585H10.9987L10.8831 10.181ZM1.87234 11.4637L1.75546 11.8413H1.3844L1.68476 12.0696L1.57359 12.4287L1.868 12.2089L2.17107 12.4393L2.05726 12.0676L2.36029 11.8413H1.98797L1.87234 11.4637ZM3.87473 11.4637L3.75784 11.8413H3.38678L3.68714 12.0696L3.57597 12.4287L3.87039 12.2089L4.17345 12.4393L4.05965 12.0676L4.36267 11.8413H3.99035L3.87473 11.4637ZM5.87711 11.4637L5.76022 11.8413H5.38917L5.68952 12.0696L5.57835 12.4287L5.87277 12.2089L6.17584 12.4393L6.06203 12.0676L6.36506 11.8413H5.99274L5.87711 11.4637ZM7.8795 11.4637L7.76261 11.8413H7.39156L7.69191 12.0696L7.58074 12.4287L7.87515 12.2089L8.17822 12.4393L8.06441 12.0676L8.36744 11.8413H7.99513L7.8795 11.4637ZM9.88188 11.4637L9.76499 11.8413H9.39394L9.6943 12.0696L9.58313 12.4287L9.87754 12.2089L10.1806 12.4393L10.0668 12.0676L10.3698 11.8413H9.99751L9.88188 11.4637ZM11.8843 11.4637L11.7674 11.8413H11.3963L11.6967 12.0696L11.5855 12.4287L11.8799 12.2089L12.183 12.4393L12.0692 12.0676L12.3722 11.8413H11.9999L11.8843 11.4637Z" fill="#FCFCFC"/>
</g>
<defs>
<clipPath id="clip0_761_213">
<rect width="24" height="24" fill="white"/>
</clipPath>
</defs>
</svg>
